<svg height="512pt" viewBox="-4 0 512 512.00292" width="512pt" xmlns="http://www.w3.org/2000/svg"><path d="m460.804688 213.332031-50.175782 41.644531-299.777344-6.402343-16.894531-.339844-36.179687-.769531 36.09375-27.644532 8.535156-6.488281zm0 0" fill="#4e342e"/><path d="m486.40625 93.867188c0 47.128906-38.207031 85.332031-85.335938 85.332031-4.230468.007812-8.453124-.335938-12.628906-1.023438-.085937.085938-.167968.085938-.339844 0-41.535156-6.492187-72.152343-42.269531-72.152343-84.308593 0-42.039063 30.617187-77.816407 72.152343-84.308594.171876-.085938.253907-.085938.339844 0 4.175782-.6875 8.398438-1.03125 12.628906-1.023438 22.632813 0 44.339844 8.988282 60.339844 24.992188 16.003906 16.003906 24.996094 37.707031 24.996094 60.339844zm0 0" fill="#ff9801"/><path d="m298.722656 213.382812c0 47.160157-38.226562 85.386719-85.382812 85.386719s-85.386719-38.226562-85.386719-85.386719c0-47.15625 38.230469-85.382812 85.386719-85.382812s85.382812 38.226562 85.382812 85.382812zm0 0" fill="#fec108"/><path d="m460.804688 298.667969v154.109375c.027343 5.082031-2.226563 9.90625-6.144532 13.144531l-42.582031 33.449219c-3.496094 2.558594-2.558594-4.011719-2.472656-8.363282v-243.542968h17.578125zm0 0" fill="#4e342e"/><path d="m418.136719 247.464844v238.933594c-.027344 9.414062-7.652344 17.039062-17.066407 17.066406h-324.265624c-9.414063-.027344-17.039063-7.652344-17.066407-17.066406v-238.933594zm0 0" fill="#795548"/><path d="m491.269531 274.773438-18.175781 18.175781c-3.328125 3.320312-7.882812 5.121093-12.582031 4.976562s-9.132813-2.222656-12.25-5.746093c-.34375-.425782-.769531-.851563-1.109375-1.363282l-30.976563-43.351562 28.929688-22.097656 15.699219-12.035157 32.34375 39.425781c4.789062 6.824219 4 16.101563-1.878907 22.015626zm0 0" fill="#4e342e"/><path d="m460.804688 93.867188c-.015626 42.105468-30.742188 77.910156-72.363282 84.308593-.085937.085938-.167968.085938-.339844 0-41.535156-6.492187-72.152343-42.269531-72.152343-84.308593 0-42.039063 30.617187-77.816407 72.152343-84.308594.171876-.085938.253907-.085938.339844 0 41.621094 6.398437 72.347656 42.199218 72.363282 84.308594zm0 0" fill="#fec108"/><path d="m435.207031 298.667969v154.109375c.023438 5.082031-2.230469 9.90625-6.144531 13.144531l-19.457031 15.273437v-221.527343zm0 0" fill="#795548"/><path d="m465.667969 274.773438-17.40625 17.40625c-.34375-.425782-.769531-.851563-1.109375-1.363282l-30.976563-43.351562 28.929688-22.097656 22.441406 27.390624c4.792969 6.824219 4 16.101563-1.878906 22.015626zm0 0" fill="#795548"/><path d="m230.40625 349.867188c-18.851562 0-34.132812 15.28125-34.132812 34.132812 0 21.539062 17.066406 29.960938 17.066406 51.199219h34.132812c0-21.238281 17.066406-29.660157 17.066406-51.199219 0-18.851562-15.28125-34.132812-34.132812-34.132812" fill="#fec108"/><path d="m230.40625 469.332031c-9.425781 0-17.066406-7.640625-17.066406-17.066406v-17.066406h34.132812v17.066406c0 9.425781-7.640625 17.066406-17.066406 17.066406zm0 0" fill="#cfd8dc"/><path d="m354.394531 349.867188h-320.257812c-5.914063 0-11.40625-3.0625-14.515625-8.09375s-3.390625-11.3125-.75-16.601563l38.878906-77.707031h358.398438l-46.488282 92.964844c-2.890625 5.78125-8.800781 9.4375-15.265625 9.4375zm0 0" fill="#795548"/><path d="m165.9375 419.566406-25.601562 17.066406c-3.921876 2.617188-4.980469 7.914063-2.363282 11.835938 2.613282 3.921875 7.914063 4.980469 11.835938 2.363281l25.597656-17.066406c3.921875-2.613281 4.980469-7.914063 2.367188-11.835937-2.617188-3.921876-7.917969-4.976563-11.835938-2.363282zm0 0"/><path d="m170.671875 384c0-4.710938-3.820313-8.535156-8.535156-8.535156h-34.132813c-4.710937 0-8.53125 3.824218-8.53125 8.535156s3.820313 8.535156 8.53125 8.535156h34.132813c4.714843 0 8.535156-3.824218 8.535156-8.535156zm0 0"/><path d="m294.875 419.566406c-3.921875-2.613281-9.21875-1.558594-11.835938 2.363282-2.617187 3.921874-1.558593 9.222656 2.363282 11.835937l25.601562 17.066406c2.535156 1.691407 5.78125 1.902344 8.515625.550781 2.734375-1.347656 4.539063-4.054687 4.734375-7.097656.199219-3.042968-1.242187-5.960937-3.78125-7.652344zm0 0"/><path d="m332.804688 375.464844h-34.132813c-4.710937 0-8.535156 3.824218-8.535156 8.535156s3.824219 8.535156 8.535156 8.535156h34.132813c4.714843 0 8.535156-3.824218 8.535156-8.535156s-3.820313-8.535156-8.535156-8.535156zm0 0"/><path d="m213.339844 119.464844c-48.535156.070312-89.027344 37.089844-93.441406 85.421875-.144532 0-.273438-.085938-.425782-.085938h-17.066406c-1.875-.003906-3.695312.613281-5.179688 1.757813l-44.628906 34.132812c-.09375.066406-.136718.179688-.230468.253906-.722657.59375-1.34375 1.300782-1.835938 2.09375-.058594.109376-.144531.195313-.203125.304688-.0625.113281-.15625.1875-.214844.308594l-38.851562 77.695312c-3.96875 7.933594-3.546875 17.355469 1.113281 24.902344s12.894531 12.144531 21.761719 12.148438h17.070312v128c0 14.140624 11.460938 25.601562 25.597657 25.601562h324.265624c1.875-.011719 3.738282-.230469 5.566407-.648438 2.832031 1.21875 6.109375.699219 8.429687-1.332031l45.054688-37.546875c5.835937-4.847656 9.214844-12.039062 9.21875-19.625v-147.859375c3.671875-1.21875 7.015625-3.261719 9.777344-5.972656l18.203124-18.199219c8.972657-9.011718 9.992188-23.238281 2.386719-33.433594l-32.304687-39.433593c-.085938-.113281-.222656-.164063-.324219-.265625-.394531-.398438-.824219-.753906-1.289063-1.066406-.417968-.34375-.867187-.644532-1.339843-.902344-1.03125-.371094-2.097657-.640625-3.183594-.796875-.160156 0-.296875-.09375-.460937-.09375h-154.035157c-4.4375-48.304688-44.921875-85.292969-93.429687-85.359375zm-108.050782 102.402344h14.183594c.152344 0 .28125-.078126.433594-.085938.53125 5.808594 1.613281 11.550781 3.234375 17.152344h-40.15625zm-78.386718 115.421874c-1.578125-2.507812-1.71875-5.664062-.375-8.304687l36.496094-72.984375h339.3125l-40.304688 80.613281c-1.445312 2.894531-4.402344 4.722657-7.636719 4.71875h-320.257812c-2.953125.015625-5.699219-1.519531-7.234375-4.042969zm279.867187-115.421874h128.855469l-22.316406 17.066406h-109.773438c1.617188-5.574219 2.699219-11.289063 3.234375-17.066406zm-84.898437 221.867187h17.066406v8.53125c0 4.714844-3.820312 8.535156-8.53125 8.535156-4.714844 0-8.535156-3.820312-8.535156-8.535156zm26.683594-38.1875c-4.148438 6.472656-7.136719 13.621094-8.832032 21.121094h-18.636718c-1.691407-7.5-4.683594-14.648438-8.832032-21.121094-4.457031-6.339844-7.039062-13.808594-7.449218-21.546875-.019532-6.792969 2.679687-13.308594 7.492187-18.097656 10.132813-9.671875 26.074219-9.671875 36.207031 0 4.816406 4.789062 7.515625 11.304687 7.5 18.097656-.410156 7.738281-2.992187 15.207031-7.449218 21.546875zm-171.75 89.386719c-4.710938 0-8.53125-3.820313-8.53125-8.535156v-128h128.203124c-5.640624 7.347656-8.710937 16.339843-8.738281 25.601562.339844 10.722656 3.703125 21.132812 9.703125 30.027344 4.386719 6.230468 6.9375 13.566406 7.363282 21.171875v17.066406c0 14.140625 11.460937 25.601563 25.601562 25.601563 14.136719 0 25.597656-11.460938 25.597656-25.601563v-17.066406c.425782-7.605469 2.980469-14.941407 7.367188-21.171875 5.996094-8.894532 9.359375-19.304688 9.699218-30.027344-.027343-9.261719-3.097656-18.253906-8.738281-25.601562h90.0625c9.707031.035156 18.589844-5.449219 22.902344-14.148438l32.308594-64.613281v206.761719c0 4.714843-3.820313 8.535156-8.535157 8.535156zm372.394531-35.566406-22.527344 18.773437v-201.300781l13.515625 18.925781c3.019531 4.175781 7.230469 7.339844 12.085938 9.070313v147.96875c0 2.535156-1.125 4.9375-3.074219 6.5625zm36.054687-190.644532-18.203125 18.203125c-1.773437 1.773438-4.238281 2.675781-6.738281 2.46875s-4.78125-1.503906-6.238281-3.546875l-26.15625-36.613281 31.511719-24.109375 26.726562 32.597656c2.429688 3.394532 2.046875 8.046875-.902344 11zm-199.613281-29.789062h-48.265625c2.800781-7.820313 1.621094-16.511719-3.164062-23.304688-4.78125-6.789062-12.566407-10.828125-20.871094-10.828125-3.425782-.027343-6.5-2.097656-7.8125-5.261719-1.3125-3.160156-.609375-6.800781 1.785156-9.246093 3.363281-3.242188 8.6875-3.242188 12.050781 0 3.351563 3.230469 8.671875 3.183593 11.960938-.113281 3.289062-3.292969 3.332031-8.613282.097656-11.960938-2.6875-2.660156-5.957031-4.660156-9.550781-5.84375v-10.242188c0-4.710937-3.820313-8.53125-8.53125-8.53125-4.714844 0-8.535156 3.820313-8.535156 8.53125v10.242188c-3.589844 1.167969-6.859376 3.152344-9.558594 5.792969-7.316406 7.320312-9.507813 18.328125-5.546875 27.890625 3.960937 9.5625 13.289062 15.800781 23.640625 15.808594 3.421875.027343 6.496094 2.097656 7.808594 5.257812 1.316406 3.164062.609374 6.804688-1.785157 9.25-3.363281 3.242188-8.6875 3.242188-12.050781 0-3.332031-3.332031-8.730469-3.332031-12.066406 0-.714844.722656-1.292969 1.574219-1.703125 2.507812h-52.507813c-2.960937-8.195312-4.480468-16.835937-4.496094-25.550781 0-42.414062 34.382813-76.796875 76.800782-76.796875 42.414062 0 76.796875 34.382813 76.796875 76.796875-.007813 8.730469-1.527344 17.390625-4.496094 25.601563zm0 0"/><path d="m401.070312 187.734375c51.84375 0 93.867188-42.027344 93.867188-93.867187 0-51.839844-42.023438-93.867188-93.867188-93.867188-51.839843 0-93.863281 42.027344-93.863281 93.867188.058594 51.816406 42.050781 93.804687 93.863281 93.867187zm0-170.667969c42.417969 0 76.800782 34.386719 76.800782 76.800782 0 42.414062-34.382813 76.800781-76.800782 76.800781-42.414062 0-76.796874-34.386719-76.796874-76.800781.050781-42.394532 34.40625-76.75 76.796874-76.800782zm0 0"/><path d="m12.53125 41.675781c.726562-.382812 72.636719-37.863281 126.472656-16.988281 16.34375 6.46875 30.050782 18.230469 38.929688 33.398438l-11.945313-5.972657c-4.21875-2.105469-9.347656-.394531-11.453125 3.824219-2.105468 4.214844-.394531 9.34375 3.824219 11.449219l34.132813 17.066406c.171874.085937.347656.113281.519531.1875.238281.097656.480469.183594.726562.257813.53125.167968 1.074219.28125 1.628907.339843.144531 0 .273437.085938.425781.09375h.480469c.1875 0 .355468-.066406.542968-.074219.96875.023438 1.929688-.210937 2.773438-.683593.390625-.140625.769531-.304688 1.136718-.496094.289063-.1875.527344-.441406.800782-.65625.359375-.253906.695312-.542969 1.007812-.851563.546875-.589843 1.011719-1.253906 1.375-1.972656l17.066406-34.132812c2.105469-4.21875.394532-9.347656-3.824218-11.453125s-9.34375-.394531-11.449219 3.824219l-8.875 17.757812c-10.613281-21.84375-29.046875-38.902344-51.644531-47.789062-61.039063-23.722657-137.414063 16.078124-140.636719 17.785156-4.167969 2.207031-5.757813 7.371094-3.550781 11.535156 2.203125 4.167969 7.371094 5.757812 11.535156 3.550781zm0 0"/><path d="m401.070312 102.398438c3.445313.011718 6.542969 2.089843 7.859376 5.269531 1.316406 3.179687.59375 6.839843-1.832032 9.28125-3.363281 3.242187-8.6875 3.242187-12.050781 0-2.144531-2.214844-5.316406-3.105469-8.300781-2.320313-2.980469.78125-5.308594 3.113282-6.089844 6.097656-.777344 2.984376.113281 6.15625 2.332031 8.296876 2.699219 2.679687 5.960938 4.722656 9.550781 5.972656v10.070312c0 4.714844 3.820313 8.535156 8.53125 8.535156 4.714844 0 8.535157-3.820312 8.535157-8.535156v-10.09375c11.714843-4.164062 18.734375-16.15625 16.628906-28.410156-2.109375-12.257812-12.726563-21.214844-25.164063-21.230469-3.421874-.027343-6.496093-2.097656-7.808593-5.257812-1.3125-3.164063-.609375-6.804688 1.785156-9.246094 3.363281-3.242187 8.6875-3.242187 12.050781 0 2.164063 2.152344 5.3125 2.988281 8.261719 2.191406 2.945313-.796875 5.246094-3.109375 6.027344-6.058593.78125-2.953126-.066407-6.097657-2.234375-8.25-2.691406-2.648438-5.957032-4.632813-9.546875-5.804688v-10.238281c0-4.714844-3.820313-8.535157-8.535157-8.535157-4.710937 0-8.53125 3.820313-8.53125 8.535157v10.238281c-3.589843 1.167969-6.859374 3.152344-9.558593 5.792969-7.316407 7.320312-9.507813 18.328125-5.546875 27.894531 3.957031 9.5625 13.289062 15.800781 23.636718 15.804688zm0 0"/></svg>